
<svg width="98" height="86" viewBox="0 0 98 86" fill="none" xmlns="http://www.w3.org/2000/svg">
<path d="M52.8273 83.7531C51.8405 84.3082 50.8537 84.8263 49.9048 85.4185C49.1458 85.8996 48.5006 85.8256 47.8933 85.1964C41.4791 79.5711 35.9758 73.1685 31.3074 66.0998C26.2975 58.5499 22.3503 50.5189 20.7562 41.5627C18.8585 30.9411 20.7562 21.0597 27.2843 12.2515C30.3965 7.99549 34.3058 4.47963 39.5434 2.70319C42.5418 3.62842 45.1986 5.14579 47.5897 7.07026C48.6524 7.92147 49.2976 7.99549 50.4362 7.10727C54.8768 3.62842 59.9247 1.5189 65.6557 1.14881C71.159 0.445637 75.7515 2.55515 79.5848 6.10803C89.0354 14.7682 91.4264 25.5008 88.7317 37.5657C86.4165 47.7803 81.103 56.5514 74.499 64.6194C69.6788 70.5038 64.1755 75.7591 58.027 80.3483C56.357 81.5696 54.4973 82.5318 52.8273 83.7531Z" fill="#EE5572"/>
<path d="M39.5445 2.70284C39.2788 3.25798 38.7095 3.44302 38.2161 3.70209C29.7524 7.99514 24.7425 14.9528 22.1237 23.687C19.5808 32.1621 20.3778 40.5261 23.2243 48.8161C26.5643 58.5125 31.9917 66.9876 38.5957 74.8705C41.3663 78.1643 44.3267 81.2361 47.4389 84.2338C47.7046 84.4929 48.3498 84.6409 47.9323 85.2331C40.0759 81.4582 32.9026 76.647 26.2607 71.1326C17.4174 63.8048 9.7507 55.5148 4.62692 45.2263C0.414032 36.8622 -1.14208 28.2761 2.31173 19.3199C8.30845 3.92414 25.7673 -2.58946 39.5445 2.70284Z" fill="#EE5572"/>
<path d="M52.8276 83.753C53.5867 82.3837 55.1049 81.8656 56.2814 80.9773C62.5818 76.3142 68.2749 71.0589 73.2848 65.1004C77.4597 60.1412 81.1413 54.8859 83.9878 49.1125C87.2898 42.3398 89.7189 35.2711 89.1875 27.6842C88.3905 16.9146 84.0637 8.03238 73.6643 2.85111C71.1594 1.5928 68.4647 1.00065 65.6561 1.14869C70.8558 0.371496 75.8277 1.37074 80.534 3.48026C94.1974 9.62377 100.65 24.0573 96.209 38.3799C93.6661 46.6699 88.8839 53.7386 83.1528 60.2152C74.9168 69.5415 65.0868 76.9804 54.194 83.1609C53.7765 83.4199 53.2831 83.568 52.8276 83.753Z" fill="#E93456"/>
<path d="M80.6749 35.6566C78.1699 35.6196 75.627 33.177 75.665 30.8084C75.7029 27.9587 77.9422 25.9972 81.0165 26.0342C83.8251 26.0712 85.7607 28.1807 85.7987 30.9564C85.8746 33.399 83.2178 35.7306 80.6749 35.6566Z" fill="white" fill-opacity="0.5"/>
<path d="M77.08 14.102C78.2187 14.25 79.0916 14.9902 79.0536 16.4706C79.0157 17.9139 78.1807 18.7651 76.7385 18.8762C75.486 18.9872 74.1576 17.6549 74.1196 16.4336C74.1196 15.1383 75.2962 14.065 77.08 14.102Z" fill="#FEFEFE"/>
</svg>